<svg xmlns="http://www.w3.org/2000/svg" xmlns:xlink="http://www.w3.org/1999/xlink" width="500" zoomAndPan="magnify" viewBox="0 0 375 374.999991" height="500" preserveAspectRatio="xMidYMid meet" version="1.0"><defs><g/><clipPath id="cf17e50ced"><path d="M 187 109.183594 L 218.878906 109.183594 L 218.878906 146 L 187 146 Z M 187 109.183594 " clip-rule="nonzero"/></clipPath><clipPath id="bda5a5d914"><path d="M 168.628906 127 L 194 127 L 194 157.933594 L 168.628906 157.933594 Z M 168.628906 127 " clip-rule="nonzero"/></clipPath></defs><g fill="#ffffff" fill-opacity="1"><g transform="translate(33.660415, 225.558709)"><g><path d="M 68.59375 -51.234375 C 68.59375 -46.210938 67.316406 -41.546875 64.765625 -37.234375 C 61.648438 -32.128906 57.257812 -28.578125 51.59375 -26.578125 L 68.359375 0 L 47.40625 0 L 31.125 -24.78125 L 22.265625 -24.78125 L 22.265625 0 L 3.59375 0 L 3.59375 -77.8125 L 40.828125 -77.8125 C 49.679688 -77.8125 56.703125 -74.898438 61.890625 -69.078125 C 66.359375 -63.972656 68.59375 -58.023438 68.59375 -51.234375 Z M 22.265625 -61.0625 L 22.265625 -41.546875 L 40.703125 -41.546875 C 43.253906 -41.546875 45.289062 -41.90625 46.8125 -42.625 C 48.082031 -43.34375 49 -44.019531 49.5625 -44.65625 C 50.363281 -45.613281 50.960938 -46.726562 51.359375 -48 C 51.679688 -49.125 51.84375 -50.203125 51.84375 -51.234375 C 51.84375 -52.359375 51.679688 -53.476562 51.359375 -54.59375 C 50.878906 -55.863281 50.203125 -56.976562 49.328125 -57.9375 C 47.566406 -60.019531 44.734375 -61.0625 40.828125 -61.0625 Z M 22.265625 -61.0625 "/></g></g></g><g fill="#ffffff" fill-opacity="1"><g transform="translate(101.892387, 225.558709)"><g><path d="M 3.59375 -61.890625 L 19.15625 -61.890625 L 19.15625 -30.765625 C 19.15625 -29.566406 19.351562 -28.210938 19.75 -26.703125 C 20.226562 -24.859375 20.945312 -23.179688 21.90625 -21.671875 C 24.539062 -17.679688 28.289062 -15.6875 33.15625 -15.6875 C 38.507812 -15.6875 42.382812 -17.71875 44.78125 -21.78125 C 45.65625 -23.21875 46.289062 -24.894531 46.6875 -26.8125 C 47.007812 -28.175781 47.171875 -29.535156 47.171875 -30.890625 L 47.171875 -61.890625 L 63.9375 -61.890625 L 63.9375 0 L 47.171875 0 L 47.171875 -6.46875 C 43.253906 -2.15625 38.222656 0 32.078125 0 C 24.179688 0.0820312 17.476562 -2.75 11.96875 -8.5 C 6.382812 -14.164062 3.59375 -21.191406 3.59375 -29.578125 Z M 3.59375 -61.890625 "/></g></g></g><g fill="#ffffff" fill-opacity="1"><g transform="translate(165.455825, 225.558709)"><g><path d="M 28.5 0 C 24.34375 0 20.707031 -0.640625 17.59375 -1.921875 C 15.125 -2.796875 12.570312 -4.429688 9.9375 -6.828125 C 5.382812 -11.054688 3.3125 -16.398438 3.71875 -22.859375 L 3.71875 -24.1875 L 17.125 -23.9375 L 18.203125 -23.9375 L 18.203125 -22.984375 C 18.273438 -20.992188 18.710938 -19.359375 19.515625 -18.078125 C 20.867188 -15.765625 23.863281 -14.609375 28.5 -14.609375 C 32.320312 -14.609375 35.070312 -15.046875 36.75 -15.921875 C 37.632812 -16.316406 38.234375 -16.835938 38.546875 -17.484375 C 38.703125 -17.722656 38.78125 -17.960938 38.78125 -18.203125 L 38.90625 -18.796875 C 38.90625 -20.472656 37.585938 -21.828125 34.953125 -22.859375 C 33.921875 -23.265625 32.722656 -23.585938 31.359375 -23.828125 C 30.328125 -24.066406 29.171875 -24.265625 27.890625 -24.421875 C 23.109375 -24.898438 19.117188 -25.859375 15.921875 -27.296875 C 12.734375 -28.578125 10.097656 -30.332031 8.015625 -32.5625 C 5.148438 -35.832031 3.71875 -39.582031 3.71875 -43.8125 C 3.71875 -46.445312 4.191406 -48.882812 5.140625 -51.125 C 5.859375 -52.875 6.816406 -54.425781 8.015625 -55.78125 C 12.328125 -60.738281 19.234375 -63.21875 28.734375 -63.21875 C 34.398438 -63.21875 39.1875 -62.097656 43.09375 -59.859375 C 46.125 -58.179688 48.5625 -55.90625 50.40625 -53.03125 C 51.84375 -50.875 52.835938 -48.363281 53.390625 -45.5 C 53.554688 -44.539062 53.675781 -43.617188 53.75 -42.734375 L 53.75 -40.21875 L 39.265625 -40.21875 L 39.265625 -42.015625 C 39.179688 -42.335938 39.140625 -42.660156 39.140625 -42.984375 C 38.898438 -43.859375 38.582031 -44.578125 38.1875 -45.140625 C 36.4375 -47.523438 33.285156 -48.71875 28.734375 -48.71875 C 22.023438 -48.71875 18.671875 -47.320312 18.671875 -44.53125 C 18.671875 -43.09375 19.472656 -41.9375 21.078125 -41.0625 C 22.742188 -40.019531 25.578125 -39.257812 29.578125 -38.78125 C 38.753906 -37.832031 45.414062 -34.921875 49.5625 -30.046875 C 52.351562 -26.773438 53.75 -23.023438 53.75 -18.796875 L 53.75 -17.953125 L 53.640625 -16.875 C 53.640625 -15.84375 53.519531 -14.882812 53.28125 -14 C 52.632812 -11.445312 51.4375 -9.175781 49.6875 -7.1875 C 47.6875 -4.789062 44.890625 -2.992188 41.296875 -1.796875 C 37.710938 -0.597656 33.445312 0 28.5 0 Z M 28.5 0 "/></g></g></g><g fill="#ffffff" fill-opacity="1"><g transform="translate(218.844198, 225.558709)"><g><path d="M 48 -61.65625 L 48 -44.890625 L 34.234375 -44.890625 L 34.234375 0 L 17.484375 0 L 17.484375 -44.890625 L 3.59375 -44.890625 L 3.59375 -61.65625 L 17.484375 -61.65625 L 17.484375 -83.203125 L 34.234375 -83.203125 L 34.234375 -61.65625 Z M 48 -61.65625 "/></g></g></g><g fill="#ffffff" fill-opacity="1"><g transform="translate(266.486694, 225.558709)"><g><path d="M 20.234375 -83.4375 L 20.234375 -69.3125 L 3.59375 -69.3125 L 3.59375 -83.4375 Z M 20.359375 -61.53125 L 20.359375 0 L 3.59375 0 L 3.59375 -61.53125 Z M 20.359375 -61.53125 "/></g></g></g><g fill="#ffffff" fill-opacity="1"><g transform="translate(286.476994, 225.558709)"><g><path d="M 52.921875 -7.421875 C 47.085938 -2.472656 40.300781 0 32.5625 0 C 24.019531 -0.0820312 16.757812 -3.15625 10.78125 -9.21875 C 4.789062 -15.28125 1.835938 -22.539062 1.921875 -31 C 1.992188 -39.539062 5.066406 -46.804688 11.140625 -52.796875 C 17.203125 -58.785156 24.460938 -61.738281 32.921875 -61.65625 C 40.585938 -61.570312 47.289062 -59.019531 53.03125 -54 L 41.90625 -42.984375 C 39.1875 -44.972656 36.148438 -45.96875 32.796875 -45.96875 C 28.648438 -45.96875 25.0625 -44.53125 22.03125 -41.65625 C 19.070312 -38.707031 17.59375 -35.117188 17.59375 -30.890625 C 17.4375 -26.734375 18.875 -23.140625 21.90625 -20.109375 C 24.78125 -17.234375 28.375 -15.71875 32.6875 -15.5625 C 36.039062 -15.5625 39.070312 -16.5625 41.78125 -18.5625 Z M 52.921875 -7.421875 "/></g></g></g><g clip-path="url(#cf17e50ced)"><path fill="#288a2f" d="M 189.910156 126.320312 C 188.445312 128.9375 187.660156 131.464844 187.457031 133.785156 C 188.570312 134.714844 189.621094 135.761719 190.566406 136.933594 C 192.851562 132.917969 196.949219 127.800781 203.964844 124.617188 C 203.964844 124.617188 196.476562 128.824219 192.832031 140.390625 C 193.648438 141.976562 194.164062 143.566406 194.378906 145.097656 C 194.515625 145.171875 194.644531 145.234375 194.757812 145.277344 C 201.929688 147.792969 209.902344 141.140625 210.828125 131.210938 C 212.453125 113.738281 218.867188 109.199219 218.867188 109.199219 C 218.867188 109.199219 198.054688 111.769531 189.910156 126.320312 Z M 189.910156 126.320312 " fill-opacity="1" fill-rule="nonzero"/></g><g clip-path="url(#bda5a5d914)"><path fill="#288a2f" d="M 191.179688 139.816406 C 184.574219 128.929688 168.625 127.523438 168.625 127.523438 C 168.625 127.523438 172.773438 129.023438 174.523438 143.570312 C 175.433594 151.128906 182.230469 155.144531 187.988281 154.40625 C 188.984375 154.28125 189.839844 154.109375 190.640625 154.667969 C 191 154.917969 191.882812 156.75 192.265625 157.914062 L 192.472656 157.40625 C 192.65625 156.960938 192.691406 156.464844 192.554688 156.003906 C 189.542969 145.859375 180.410156 138.890625 180.410156 138.890625 C 187.699219 141.894531 191.082031 147.691406 192.386719 150.625 C 193.898438 147.785156 193.664062 143.910156 191.179688 139.816406 Z M 191.179688 139.816406 " fill-opacity="1" fill-rule="nonzero"/></g><g fill="#288a2f" fill-opacity="1"><g transform="translate(141.743908, 257.504793)"><g><path d="M 16.078125 -21.328125 L 16.078125 -18.46875 L 10.40625 -18.46875 L 10.40625 0 L 6.90625 0 L 6.90625 -18.46875 L 1.203125 -18.46875 L 1.203125 -21.328125 Z M 16.078125 -21.328125 "/></g></g></g><g fill="#288a2f" fill-opacity="1"><g transform="translate(165.491337, 257.504793)"><g><path d="M 15.15625 -4.359375 L 6.234375 -4.359375 L 4.6875 0 L 1.046875 0 L 8.6875 -21.359375 L 12.734375 -21.359375 L 20.375 0 L 16.6875 0 Z M 14.171875 -7.21875 L 10.703125 -17.125 L 7.21875 -7.21875 Z M 14.171875 -7.21875 "/></g></g></g><g fill="#288a2f" fill-opacity="1"><g transform="translate(193.319155, 257.504793)"><g><path d="M 9.328125 0.21875 C 7.898438 0.21875 6.613281 -0.03125 5.46875 -0.53125 C 4.320312 -1.03125 3.421875 -1.738281 2.765625 -2.65625 C 2.109375 -3.582031 1.78125 -4.660156 1.78125 -5.890625 L 5.53125 -5.890625 C 5.601562 -4.972656 5.960938 -4.21875 6.609375 -3.625 C 7.253906 -3.03125 8.160156 -2.734375 9.328125 -2.734375 C 10.535156 -2.734375 11.476562 -3.023438 12.15625 -3.609375 C 12.832031 -4.191406 13.171875 -4.941406 13.171875 -5.859375 C 13.171875 -6.578125 12.957031 -7.160156 12.53125 -7.609375 C 12.113281 -8.054688 11.59375 -8.398438 10.96875 -8.640625 C 10.34375 -8.890625 9.476562 -9.160156 8.375 -9.453125 C 6.988281 -9.816406 5.859375 -10.1875 4.984375 -10.5625 C 4.117188 -10.945312 3.378906 -11.535156 2.765625 -12.328125 C 2.148438 -13.128906 1.84375 -14.195312 1.84375 -15.53125 C 1.84375 -16.757812 2.148438 -17.832031 2.765625 -18.75 C 3.378906 -19.664062 4.238281 -20.367188 5.34375 -20.859375 C 6.445312 -21.359375 7.722656 -21.609375 9.171875 -21.609375 C 11.242188 -21.609375 12.9375 -21.085938 14.25 -20.046875 C 15.570312 -19.015625 16.304688 -17.597656 16.453125 -15.796875 L 12.578125 -15.796875 C 12.515625 -16.578125 12.144531 -17.242188 11.46875 -17.796875 C 10.800781 -18.347656 9.914062 -18.625 8.8125 -18.625 C 7.800781 -18.625 6.976562 -18.367188 6.34375 -17.859375 C 5.71875 -17.347656 5.40625 -16.613281 5.40625 -15.65625 C 5.40625 -15 5.601562 -14.457031 6 -14.03125 C 6.394531 -13.613281 6.898438 -13.28125 7.515625 -13.03125 C 8.128906 -12.789062 8.96875 -12.53125 10.03125 -12.25 C 11.445312 -11.851562 12.597656 -11.460938 13.484375 -11.078125 C 14.378906 -10.691406 15.132812 -10.09375 15.75 -9.28125 C 16.375 -8.476562 16.6875 -7.398438 16.6875 -6.046875 C 16.6875 -4.960938 16.394531 -3.9375 15.8125 -2.96875 C 15.226562 -2.007812 14.378906 -1.238281 13.265625 -0.65625 C 12.148438 -0.0703125 10.835938 0.21875 9.328125 0.21875 Z M 9.328125 0.21875 "/></g></g></g><g fill="#288a2f" fill-opacity="1"><g transform="translate(218.293766, 257.504793)"><g><path d="M 16.078125 -21.328125 L 16.078125 -18.46875 L 10.40625 -18.46875 L 10.40625 0 L 6.90625 0 L 6.90625 -18.46875 L 1.203125 -18.46875 L 1.203125 -21.328125 Z M 16.078125 -21.328125 "/></g></g></g><g fill="#288a2f" fill-opacity="1"><g transform="translate(242.041194, 257.504793)"><g><path d="M 5.796875 -18.5 L 5.796875 -12.25 L 13.171875 -12.25 L 13.171875 -9.390625 L 5.796875 -9.390625 L 5.796875 -2.859375 L 14.078125 -2.859375 L 14.078125 0 L 2.296875 0 L 2.296875 -21.359375 L 14.078125 -21.359375 L 14.078125 -18.5 Z M 5.796875 -18.5 "/></g></g></g></svg>